<!--?xml version="1.0" standalone="no"?-->

<svg version="1.0" xmlns="http://www.w3.org/2000/svg" width="300.000000pt" height="300.000000pt" viewBox="0 0 300.000000 300.000000" preserveAspectRatio="xMidYMid meet">
<g transform="translate(0.000000,300.000000) scale(0.100000,-0.100000)" fill="#353535" stroke="none">
<path class="node" id="node1" d="M1345 2860 c-78 -20 -122 -54 -158 -122 -32 -60 -51 -174 -43 -252 9
-85 37 -229 47 -240 5 -6 9 -17 9 -25 0 -29 57 -137 125 -237 73 -107 99 -158
91 -180 -4 -10 -23 -14 -60 -14 -33 0 -77 -9 -108 -21 -60 -24 -132 -21 -170
6 -55 38 -151 10 -246 -71 -69 -60 -97 -120 -98 -213 -1 -115 -1 -114 -51
-187 -44 -65 -47 -73 -47 -134 0 -40 9 -93 23 -139 21 -65 22 -80 12 -123 -16
-71 -14 -89 18 -202 18 -62 32 -137 35 -194 9 -137 39 -183 182 -270 81 -50
123 -61 271 -66 76 -3 201 -16 277 -28 134 -21 141 -21 205 -5 36 10 80 17 96
17 17 1 59 8 95 16 36 9 95 19 132 24 116 15 155 53 177 175 13 71 31 129 76
245 18 47 36 106 39 132 7 44 36 128 74 208 10 23 16 63 16 115 1 67 -3 85
-21 112 -13 17 -23 41 -23 53 0 33 -48 167 -88 243 -19 37 -58 94 -86 126
-104 120 -158 192 -181 244 -16 37 -45 75 -92 118 -158 149 -162 154 -216 279
-8 19 -18 51 -21 71 -4 20 -23 69 -43 109 -35 72 -36 78 -42 221 -7 162 -11
172 -76 203 -35 17 -80 19 -130 6z m137 -33 c17 -13 23 -39 34 -145 5 -49 3
-71 -11 -102 -18 -39 -13 -69 5 -40 8 12 10 12 10 -4 0 -11 -7 -28 -17 -38 -9
-10 -13 -21 -9 -26 4 -4 13 1 20 11 21 28 29 20 23 -24 -4 -32 -2 -39 9 -35
14 5 64 -68 64 -95 0 -11 -2 -11 -9 -1 -6 11 -10 10 -19 -1 -15 -18 -4 -57 16
-57 12 0 13 -3 4 -12 -18 -18 -15 -28 10 -28 21 0 21 0 2 -15 -19 -14 -18 -14
4 -15 27 0 28 -8 5 -26 -16 -12 -15 -13 10 -14 31 0 36 -15 7 -23 -34 -9 -22
-27 18 -27 30 -1 34 -3 19 -11 -24 -14 -11 -30 19 -23 28 7 33 -10 7 -25 -15
-9 -13 -10 14 -11 23 0 31 -4 27 -14 -3 -9 4 -16 22 -20 35 -9 86 -60 73 -73
-6 -6 5 -16 31 -28 51 -23 51 -35 0 -24 -42 10 -90 3 -90 -12 0 -5 19 -9 43
-9 63 0 89 -9 82 -29 -4 -12 4 -19 27 -26 42 -13 51 -38 12 -33 -16 2 -30 -1
-32 -7 -1 -5 15 -11 35 -13 57 -5 62 -19 9 -27 -26 -4 -43 -11 -40 -17 4 -6
25 -7 53 -3 l46 7 -19 -21 c-11 -12 -31 -21 -48 -21 -18 0 -28 -5 -28 -15 0
-20 49 -20 78 1 30 21 28 6 -5 -28 -20 -21 -23 -28 -11 -28 9 0 29 15 44 33
l27 32 -7 -45 c-4 -24 -12 -50 -17 -57 -6 -6 -8 -17 -4 -23 11 -17 35 22 44
72 l9 43 1 -53 c1 -30 -6 -66 -14 -82 -13 -25 -13 -30 -1 -30 14 0 28 28 45
90 l9 35 1 -41 c1 -23 -6 -58 -14 -77 -17 -41 -19 -57 -6 -57 10 0 41 78 41
103 0 9 5 17 10 17 14 0 12 -71 -3 -100 -24 -46 -27 -60 -14 -60 14 0 47 61
47 86 0 9 6 14 13 11 17 -6 12 -81 -7 -109 -18 -25 -21 -48 -7 -48 5 0 17 18
27 40 10 22 21 40 26 40 11 0 10 -83 -1 -95 -4 -6 -13 -23 -19 -40 -5 -16 -13
-39 -17 -50 -7 -19 -7 -19 9 -4 10 9 23 33 31 55 15 44 35 57 35 22 0 -43 -29
-112 -70 -166 -43 -56 -46 -62 -30 -62 13 0 48 38 81 89 37 57 38 33 2 -39
-16 -31 -55 -81 -92 -116 -72 -70 -80 -103 -12 -54 23 17 45 29 48 27 10 -11
-63 -134 -109 -184 -46 -47 -48 -53 -28 -53 50 0 143 141 191 289 33 103 36
65 4 -50 -32 -114 -72 -191 -136 -265 -61 -69 -66 -99 -9 -54 22 17 40 36 40
41 0 5 4 9 8 9 12 0 1 -72 -14 -95 -16 -23 -18 -35 -4 -35 16 0 38 52 50 120
6 36 27 98 47 139 35 76 69 226 58 260 -6 21 3 51 16 51 4 0 13 -9 19 -20 12
-22 -3 -174 -19 -194 -4 -6 -14 -29 -20 -51 -7 -22 -17 -49 -22 -60 -5 -11
-30 -85 -57 -165 -52 -158 -68 -175 -90 -103 -8 24 -18 43 -23 43 -12 0 -11
-9 6 -66 8 -27 15 -88 15 -136 0 -80 -2 -89 -26 -115 l-26 -28 22 38 c12 21
19 41 15 45 -4 4 -10 1 -13 -6 -7 -20 -63 -82 -74 -82 -5 0 3 16 18 35 37 49
22 57 -24 12 -49 -48 -71 -49 -43 -3 12 18 21 38 21 45 0 21 -15 10 -40 -30
-25 -40 -56 -66 -67 -55 -3 3 0 12 6 20 7 8 10 20 6 27 -5 7 -16 -3 -29 -27
-23 -40 -46 -56 -46 -30 0 21 -10 20 -26 -1 -13 -17 -13 -17 -14 0 0 23 -9 22
-37 -5 -27 -25 -29 -15 -8 35 8 20 15 58 15 85 0 49 -16 112 -28 112 -4 0 -6
-44 -4 -99 3 -93 2 -100 -21 -127 l-25 -29 5 28 c7 35 -10 35 -24 0 l-11 -28
-1 33 c-1 37 -21 44 -21 7 0 -37 -20 -30 -21 8 l-2 32 -10 -37 c-13 -47 -27
-49 -27 -5 l0 32 -16 -32 c-22 -45 -46 -45 -33 -1 5 18 9 42 9 53 -1 19 -1 19
-11 2 -6 -10 -8 -21 -5 -24 9 -9 -34 -63 -51 -63 -9 0 -13 6 -9 15 3 8 9 22
12 30 3 8 1 15 -4 15 -6 0 -13 -8 -17 -19 -7 -22 -43 -57 -51 -49 -3 3 9 32
26 64 17 33 33 84 37 114 6 46 8 50 13 25 3 -16 10 -29 15 -27 6 1 9 37 7 87
-3 70 -1 85 11 85 8 0 21 7 28 16 12 15 10 16 -19 10 -26 -6 -32 -4 -32 8 0 9
11 21 25 26 31 12 34 34 4 25 -15 -5 -19 -4 -15 4 4 6 23 11 42 11 39 0 46 17
9 22 -14 2 -24 8 -23 13 2 6 8 8 13 6 27 -11 75 -12 75 -2 0 6 -13 11 -28 11
-16 0 -37 9 -47 20 -21 23 -11 25 25 5 27 -15 60 -20 60 -7 0 4 -24 18 -53 32
-32 15 -53 33 -56 45 -3 16 3 13 33 -13 36 -32 66 -42 66 -22 0 6 -4 10 -10
10 -17 0 -80 61 -80 78 0 11 10 6 34 -17 19 -18 39 -30 45 -27 6 4 -8 25 -34
50 -25 23 -45 50 -45 59 0 26 13 20 36 -16 12 -18 58 -62 102 -97 45 -36 81
-71 81 -78 1 -7 -9 -16 -21 -21 -13 -5 -45 -18 -72 -28 -27 -10 -52 -25 -54
-32 -4 -13 18 -10 63 9 78 32 160 54 220 57 87 5 115 11 115 23 0 6 -36 10
-85 10 -87 0 -169 23 -208 57 -26 24 -15 25 34 3 44 -20 125 -28 115 -11 -3 5
-26 12 -51 15 -42 7 -211 83 -202 92 2 2 28 -6 58 -18 129 -50 129 -50 129
-33 0 17 -27 30 -142 70 -42 14 -79 34 -82 42 -9 24 -3 25 44 8 49 -17 50 -18
50 -7 0 4 -25 20 -56 35 -57 28 -68 54 -14 36 16 -6 37 -9 47 -6 17 4 -8 19
-69 40 -10 4 -18 14 -18 22 0 13 7 15 33 10 l32 -6 -33 21 c-17 12 -35 34 -39
48 -5 22 -7 23 -18 9 -16 -22 -25 -11 -25 27 l0 30 28 -26 c24 -23 83 -58 97
-58 17 0 -1 21 -45 49 -54 35 -98 83 -81 89 6 2 25 -8 42 -23 50 -41 129 -69
129 -45 0 6 -8 10 -18 10 -38 0 -142 82 -142 112 0 14 20 8 40 -12 11 -11 30
-20 43 -19 22 0 22 0 -3 17 -48 33 -90 74 -90 89 0 12 3 12 22 -1 24 -17 68
-22 68 -7 0 5 -13 12 -29 16 -16 3 -39 17 -52 31 l-23 25 42 -7 c54 -9 54 2
-2 26 -55 23 -67 40 -30 40 34 0 21 17 -16 22 -21 2 -25 9 -28 41 -3 31 2 43
24 64 27 25 30 25 92 14 36 -7 67 -9 70 -6 12 11 -23 24 -80 31 -57 7 -81 24
-33 24 35 0 31 17 -5 25 -53 12 -36 30 24 27 61 -4 166 14 166 29 0 6 -37 7
-94 3 -94 -7 -146 -1 -146 15 0 5 14 8 31 7 18 0 34 5 36 12 3 8 -6 12 -29 12
-18 0 -40 5 -48 11 -11 8 -1 9 38 5 58 -6 112 1 112 15 0 5 -28 10 -62 10 -35
1 -76 5 -93 9 l-30 8 31 1 c17 0 37 8 44 16 11 13 6 14 -36 10 -47 -4 -47 -4
-16 7 44 15 41 32 -5 25 -21 -4 -45 -2 -53 3 -12 8 -9 10 12 10 32 0 58 9 58
21 0 4 -22 5 -50 2 -58 -7 -71 12 -15 23 19 3 35 10 35 15 0 13 -27 11 -50 -3
-14 -9 -22 -10 -31 -1 -8 8 0 13 29 18 23 3 47 14 54 22 11 14 7 15 -32 9 -25
-4 -54 -9 -65 -12 -11 -2 5 8 35 23 46 22 51 27 32 31 -22 3 -23 4 -5 17 28
21 10 27 -30 10 -40 -17 -81 -20 -73 -6 3 5 26 15 51 22 25 7 45 17 45 21 0
11 -9 10 -55 -7 -55 -19 -71 -20 -55 0 7 8 19 15 27 15 47 0 199 64 208 88 5
15 -20 9 -65 -13 -34 -17 -190 -59 -196 -52 -3 3 17 13 45 22 28 9 51 21 51
26 0 12 -47 12 -55 -1 -8 -13 -55 -13 -55 0 0 6 11 16 25 22 14 6 25 17 25 25
0 16 -5 16 -32 2 -11 -6 -22 -8 -25 -6 -3 3 10 13 29 23 30 15 31 18 13 25
-19 8 -19 8 3 15 12 3 22 10 22 15 0 17 -21 19 -49 4 -37 -19 -42 -19 -35 0 4
8 10 13 14 10 10 -6 70 24 70 36 0 5 -12 3 -27 -4 -72 -37 -103 -26 -40 14
l32 21 -32 -6 c-46 -8 -44 19 2 34 19 6 35 16 35 22 0 10 -11 9 -55 -7 -20 -7
-20 -6 -1 9 17 14 16 20 -5 18 -3 -1 -6 13 -6 29 0 25 8 36 40 56 46 29 43 41
-5 18 -32 -15 -32 -15 -10 2 65 51 69 55 47 50 -11 -3 -29 -8 -40 -12 -19 -6
-19 -6 -2 8 10 8 18 18 17 21 -3 13 7 22 53 46 26 14 45 30 43 37 -3 6 0 14 7
17 25 10 133 5 149 -7z m-182 -21 c0 -2 -7 -7 -16 -10 -8 -3 -12 -2 -9 4 6 10
25 14 25 6z m-83 -433 c-9 -9 -20 -13 -24 -9 -4 4 -1 11 7 16 25 16 35 11 17
-7z m96 -240 c-7 -2 -19 -2 -25 0 -7 3 -2 5 12 5 14 0 19 -2 13 -5z m-253
-373 c12 -8 11 -10 -7 -10 -13 0 -23 -4 -23 -10 0 -5 7 -10 15 -10 19 0 19 -7
0 -27 -24 -24 -10 -27 36 -9 26 11 46 13 51 8 18 -18 26 -82 16 -119 -6 -23
-6 -39 1 -46 6 -6 12 2 17 27 4 24 11 35 19 32 14 -5 28 45 19 69 -4 8 -3 15
0 15 17 0 71 -35 118 -77 40 -35 57 -58 69 -96 9 -28 19 -45 23 -39 4 6 2 20
-4 31 -12 24 -13 41 -1 41 15 0 34 -99 29 -153 -6 -59 -25 -113 -36 -103 -4 4
-7 28 -7 54 0 59 -21 66 -29 10 -4 -26 -17 -55 -32 -72 -29 -30 -42 -29 -25 2
14 26 14 52 1 52 -5 0 -10 -6 -10 -14 0 -21 -37 -62 -47 -52 -4 5 -2 11 5 13
14 5 16 43 2 43 -5 0 -10 -7 -10 -15 0 -15 -38 -40 -47 -31 -4 3 2 15 12 26
28 31 9 37 -22 6 -31 -31 -59 -20 -29 13 10 11 13 22 7 25 -5 3 -18 -5 -29
-19 -11 -14 -25 -25 -31 -25 -17 0 -13 14 9 28 11 7 20 19 20 27 0 21 -8 19
-34 -11 -12 -15 -28 -25 -34 -23 -8 3 -3 15 13 33 14 16 25 33 25 38 0 15 -21
8 -27 -9 -8 -20 -46 -54 -52 -47 -2 2 3 12 12 21 20 23 33 73 19 73 -6 0 -14
-10 -18 -22 -8 -27 -33 -58 -47 -58 -6 0 -2 8 7 19 9 10 16 22 14 27 -1 5 3
19 11 32 22 40 5 49 -19 9 -23 -38 -83 -77 -119 -77 -34 0 -52 51 -54 151 0
72 -3 86 -14 77 -7 -6 -13 -19 -13 -30 0 -12 -9 -22 -20 -25 -18 -5 -20 -12
-17 -78 2 -39 7 -77 11 -83 3 -6 -2 -15 -11 -21 -10 -5 -15 -13 -11 -16 4 -4
3 -18 -2 -31 -12 -30 -2 -31 25 -1 11 12 17 18 13 13 -14 -18 -8 -29 8 -15 9
7 31 14 49 15 30 1 32 -1 18 -15 -22 -22 1 -27 32 -7 13 9 33 16 43 16 23 0
137 -29 237 -60 39 -12 93 -28 120 -34 68 -17 95 -62 93 -156 0 -36 -3 -55 -5
-42 -7 37 -23 25 -23 -17 0 -22 -4 -42 -9 -45 -5 -4 -7 19 -4 53 6 64 -1 111
-17 111 -6 0 -10 -30 -10 -68 0 -46 -5 -75 -15 -88 -15 -18 -15 -18 -9 9 7 32
-15 39 -23 7 -3 -11 -10 -20 -15 -20 -6 0 -8 9 -5 20 8 30 -12 35 -23 6 -12
-33 -22 -34 -14 -1 5 19 2 25 -10 25 -9 0 -16 -8 -16 -19 0 -11 -5 -23 -11
-27 -9 -5 -10 1 -5 20 8 31 -4 34 -22 6 -7 -12 -17 -18 -23 -14 -8 4 -7 10 0
17 13 13 15 37 3 37 -5 0 -14 -11 -20 -25 -14 -31 -32 -32 -32 -2 0 22 0 22
-13 -2 -6 -14 -18 -27 -26 -29 -11 -4 -10 1 2 19 19 26 22 59 7 59 -5 0 -10
-8 -10 -18 0 -10 -7 -27 -16 -38 -15 -19 -16 -19 -9 1 15 43 22 85 15 85 -5 0
-16 -22 -25 -50 -9 -27 -19 -50 -21 -50 -3 0 -2 9 1 20 4 11 2 20 -4 20 -6 0
-15 -9 -21 -20 -6 -11 -20 -20 -30 -20 -18 0 -20 7 -20 88 1 56 6 96 15 112
17 30 18 40 5 40 -20 0 -35 -48 -40 -132 -6 -88 -24 -128 -56 -128 -24 0 -46
46 -39 80 7 30 8 31 26 14 24 -21 26 -2 4 36 -19 33 -19 82 0 127 18 44 18 43
0 43 -9 0 -23 -16 -32 -35 -9 -19 -22 -35 -28 -35 -14 0 -35 -42 -35 -69 0
-10 8 -43 19 -75 13 -41 15 -53 5 -45 -21 17 -41 99 -36 145 2 26 -1 44 -8 49
-17 11 -30 -14 -30 -60 l0 -40 -16 30 c-22 42 -10 93 39 166 42 62 42 63 47
173 6 127 14 148 87 218 79 76 166 108 213 78z m270 -15 c-17 -21 -6 -29 20
-15 34 18 36 3 5 -30 -16 -16 -26 -33 -22 -37 14 -13 57 17 79 56 26 47 38 52
38 17 0 -34 -10 -56 -25 -56 -13 0 -25 -30 -25 -67 0 -13 -5 -23 -11 -23 -21
0 -69 58 -69 83 0 36 -10 57 -26 57 -8 0 -14 -10 -14 -25 0 -14 -1 -25 -2 -25
-2 0 -25 11 -53 25 -47 23 -48 24 -20 25 17 0 41 7 55 15 14 8 38 14 54 15 24
0 27 -2 16 -15z m-150 -82 c0 -32 -5 -28 -14 10 -4 19 -3 26 4 22 5 -3 10 -18
10 -32z m194 -398 c-9 -14 -18 -25 -21 -25 -5 0 5 18 20 38 17 22 18 13 1 -13z
m28 -17 c-7 -7 -12 -8 -12 -2 0 14 12 26 19 19 2 -3 -1 -11 -7 -17z m44 -140
c7 -49 -2 -138 -14 -138 -4 0 -7 45 -7 100 0 102 10 120 21 38z m-669 -10 c-3
-8 -6 -5 -6 6 -1 11 2 17 5 13 3 -3 4 -12 1 -19z m-54 -133 c-5 -14 -2 -16 17
-10 19 6 22 4 17 -9 -7 -19 4 -21 21 -4 9 9 13 8 17 -4 4 -10 15 -13 32 -10
19 4 24 2 18 -8 -6 -9 -3 -10 11 -2 27 14 104 25 104 15 0 -4 -7 -17 -15 -27
-16 -22 -20 -66 -6 -66 5 0 12 11 15 24 8 34 54 86 75 86 25 0 58 -35 66 -69
9 -44 29 -52 23 -10 -3 19 -8 43 -12 54 -5 13 4 7 24 -15 32 -35 32 -35 26 -7
-7 32 7 36 37 10 19 -17 20 -17 14 0 -8 21 6 22 27 2 16 -17 41 -21 31 -5 -4
6 13 10 44 10 42 0 51 -3 51 -17 1 -17 2 -17 15 1 19 25 42 15 61 -26 l15 -33
-6 30 -5 30 20 -35 c10 -19 19 -51 18 -70 -1 -27 -2 -29 -5 -10 -8 46 -23 46
-24 0 l-1 -45 -10 38 c-16 59 -34 40 -30 -30 2 -37 0 -63 -7 -67 -7 -5 -11 11
-11 48 0 31 -4 56 -10 56 -5 0 -10 -21 -10 -47 0 -27 -5 -55 -10 -63 -8 -12
-10 -11 -10 8 0 29 -14 28 -28 -3 -12 -26 -32 -34 -32 -13 0 6 -11 1 -24 -11
l-24 -23 -5 24 -4 23 -8 -22 c-9 -27 -25 -30 -26 -5 0 13 -2 14 -6 2 -6 -16
-23 -30 -36 -30 -5 0 -6 14 -2 31 6 24 4 30 -6 27 -8 -3 -16 -15 -17 -29 -2
-13 -8 -28 -12 -33 -5 -5 -6 26 -3 68 4 54 3 76 -6 76 -6 0 -11 -16 -11 -39 0
-56 -18 -101 -41 -101 -17 0 -19 9 -20 113 -1 93 -3 106 -11 77 -6 -19 -13
-66 -15 -105 -5 -83 -15 -97 -43 -64 l-21 24 4 -27 c2 -16 0 -28 -4 -28 -15 0
-69 82 -70 104 0 20 -1 20 -8 1 -5 -12 -2 -34 7 -55 l14 -35 -26 24 c-26 25
-43 68 -50 132 -2 19 -4 38 -5 42 0 5 -5 5 -11 2 -27 -17 -3 -138 36 -185 15
-17 20 -28 11 -24 -28 10 -73 90 -91 159 -3 11 -3 -2 0 -29 3 -27 8 -56 10
-65 3 -9 -1 -6 -7 7 -14 26 -29 29 -29 5 0 -25 46 -79 80 -93 l31 -13 -21 -22
c-26 -27 -9 -46 19 -21 20 18 41 22 23 4 -14 -14 -16 -38 -3 -38 5 0 12 11 15
25 4 14 13 25 21 25 11 0 12 -5 5 -26 -13 -33 -13 -54 0 -54 6 0 10 10 10 23
0 12 5 29 10 37 8 12 10 11 10 -7 0 -28 16 -30 25 -4 4 14 19 20 58 24 28 3
65 12 81 20 16 9 52 19 80 22 28 4 76 13 106 21 88 23 104 20 119 -21 10 -28
10 -39 1 -50 -6 -8 -9 -22 -6 -32 3 -10 1 -25 -4 -33 -7 -11 -10 -6 -10 19 0
19 -7 43 -17 53 -23 25 -37 23 -19 -4 20 -28 20 -95 1 -128 -14 -25 -14 -25
-15 -2 0 41 -20 22 -20 -20 0 -52 -19 -90 -21 -43 -1 17 -3 22 -6 12 -2 -9
-11 -17 -19 -17 -8 0 -14 -6 -14 -14 0 -8 -3 -17 -8 -20 -4 -2 -6 14 -4 36 5
52 -13 43 -22 -11 -9 -57 -25 -60 -18 -4 6 53 -12 54 -23 0 -12 -58 -16 -67
-33 -67 -16 1 -16 1 0 10 13 8 15 19 11 48 -7 56 -23 102 -35 102 -9 0 -5 -56
8 -102 4 -13 0 -18 -14 -18 -18 0 -48 29 -94 92 -28 38 -22 -3 7 -46 13 -20
20 -36 15 -36 -19 0 -78 70 -85 99 -3 16 -13 36 -22 43 -15 12 -16 9 -10 -25
3 -20 16 -51 28 -69 13 -17 18 -28 11 -24 -7 4 -12 2 -12 -3 0 -19 -18 -12
-25 9 -3 11 -11 20 -16 20 -17 0 -9 -27 16 -50 14 -13 25 -28 25 -34 0 -18
-62 48 -76 82 -16 36 -39 45 -28 10 3 -13 13 -36 22 -53 14 -28 14 -29 -2 -16
-9 8 -23 29 -31 48 -8 18 -19 33 -24 33 -15 0 -14 -33 1 -48 7 -7 9 -12 5 -12
-4 0 -19 18 -33 40 -24 35 -28 54 -34 160 -5 67 -13 126 -18 133 -14 18 -45
164 -37 177 4 6 7 48 7 92 -1 74 0 79 14 60 7 -11 11 -28 7 -37z m657 -569
c-16 -43 -19 -28 -6 29 8 36 12 42 14 24 2 -14 -2 -38 -8 -53z m6 -104 c-23
-45 -46 -74 -46 -57 0 14 32 81 47 97 26 29 26 13 -1 -40z m-347 -8 c2 -2 -5
-4 -17 -4 -11 0 -34 11 -49 25 l-28 26 45 -22 c25 -12 47 -23 49 -25z m290
-12 c-10 -29 -69 -82 -69 -62 0 13 62 90 72 90 4 0 2 -13 -3 -28z m-61 -11
c-14 -23 -55 -47 -64 -39 -4 5 63 58 73 58 2 0 -2 -9 -9 -19z"></path>
<path class="node" id="node2" d="M1204 2614 c-18 -15 -18 -15 6 -10 14 3 31 6 38 6 6 0 12 5 12 10 0
15 -34 12 -56 -6z"></path>
<path class="node" id="node3" d="M944 1690 c-45 -23 -101 -76 -91 -87 4 -4 22 7 40 25 17 17 49 38 70
47 21 8 35 20 32 25 -8 12 -3 13 -51 -10z"></path>
<path class="node" id="node4" d="M1113 1625 c0 -22 2 -30 4 -17 2 12 2 30 0 40 -3 9 -5 -1 -4 -23z"></path>
<path class="node" id="node5" d="M1068 1625 c-12 -21 -19 -85 -9 -85 6 0 13 16 17 34 6 36 2 67 -8 51z"></path>
<path class="node" id="node6" d="M1090 1564 c0 -8 5 -12 10 -9 6 3 10 10 10 16 0 5 -4 9 -10 9 -5 0
-10 -7 -10 -16z"></path>
<path class="node" id="node7" d="M865 834 c-17 -41 -19 -64 -6 -64 4 0 13 23 18 50 6 28 9 50 7 50 -2
0 -11 -16 -19 -36z"></path>
</g>
<g transform="translate(0.000000,300.000000) scale(0.100000,-0.100000)" fill="#FFFFFF" stroke="none">

<path class="node" id="node9" d="M1333 2834 c-7 -3 -10 -11 -7 -17 2 -7 -17 -23 -43 -37 -46 -24 -56
-33 -53 -46 1 -3 -7 -13 -17 -21 -17 -14 -17 -14 2 -8 11 4 29 9 40 12 22 5
18 1 -47 -50 -22 -17 -22 -17 10 -2 48 23 51 11 5 -18 -32 -20 -40 -31 -40
-56 0 -16 3 -30 6 -29 21 2 22 -4 5 -18 -19 -15 -19 -16 1 -9 44 16 55 17 55
7 0 -6 -16 -16 -35 -22 -46 -15 -48 -42 -2 -34 l32 6 -32 -21 c-63 -40 -32
-51 40 -14 15 7 27 9 27 4 0 -12 -60 -42 -70 -36 -4 3 -10 -2 -14 -10 -7 -19
-2 -19 35 0 28 15 49 13 49 -4 0 -5 -10 -12 -22 -15 -22 -7 -22 -7 -3 -15 18
-7 17 -10 -13 -25 -19 -10 -32 -20 -29 -23 3 -2 14 0 25 6 27 14 32 14 32 -2
0 -8 -11 -19 -25 -25 -14 -6 -25 -16 -25 -22 0 -13 47 -13 55 0 8 13 55 13 55
1 0 -5 -23 -17 -51 -26 -28 -9 -48 -19 -45 -22 6 -7 162 35 196 52 45 22 70
28 65 13 -9 -24 -161 -88 -208 -88 -8 0 -20 -7 -27 -15 -16 -20 0 -19 55 0 46
17 55 18 55 7 0 -4 -20 -14 -45 -21 -25 -7 -48 -17 -51 -22 -8 -14 33 -11 73
6 40 17 58 11 30 -10 -18 -13 -17 -14 5 -17 19 -4 14 -9 -32 -31 -30 -15 -46
-25 -35 -23 11 3 40 8 65 12 39 6 43 5 32 -9 -7 -8 -31 -19 -54 -22 -29 -5
-37 -10 -29 -18 9 -9 17 -8 31 1 23 14 50 16 50 3 0 -5 -16 -12 -35 -15 -56
-11 -43 -30 15 -23 28 3 50 2 50 -2 0 -12 -26 -21 -58 -21 -21 0 -24 -2 -12
-10 8 -5 32 -7 53 -3 46 7 49 -10 5 -25 -31 -11 -31 -11 16 -7 42 4 47 3 36
-10 -7 -8 -27 -16 -44 -16 l-31 -1 30 -8 c17 -4 58 -8 93 -9 34 0 62 -5 62
-10 0 -14 -54 -21 -112 -15 -39 4 -49 3 -38 -5 8 -6 30 -11 48 -11 23 0 32 -4
29 -12 -2 -7 -18 -12 -36 -12 -17 1 -31 -2 -31 -7 0 -16 52 -22 146 -15 57 4
94 3 94 -3 0 -15 -105 -33 -166 -29 -60 3 -77 -15 -24 -27 36 -8 40 -25 5 -25
-48 0 -24 -17 33 -24 57 -7 92 -20 80 -31 -3 -3 -34 -1 -70 6 -62 11 -65 11
-92 -14 -22 -21 -27 -33 -24 -64 3 -32 7 -39 28 -41 37 -5 50 -22 16 -22 -37
0 -25 -17 30 -40 56 -24 56 -35 2 -26 l-42 7 23 -25 c13 -14 36 -28 52 -31 16
-4 29 -11 29 -16 0 -15 -44 -10 -68 7 -19 13 -22 13 -22 1 0 -15 42 -56 90
-89 25 -17 25 -17 3 -17 -13 -1 -32 8 -43 19 -20 20 -40 26 -40 12 0 -30 104
-112 142 -112 10 0 18 -4 18 -10 0 -24 -79 4 -129 45 -17 15 -36 25 -42 23
-17 -6 27 -54 81 -89 44 -28 62 -49 45 -49 -14 0 -73 35 -97 58 l-28 26 0 -30
c0 -38 9 -49 25 -27 11 14 13 13 18 -9 4 -14 22 -36 39 -48 l33 -21 -32 6
c-26 5 -33 3 -33 -10 0 -8 8 -18 18 -22 61 -21 86 -36 69 -40 -10 -3 -31 0
-47 6 -54 18 -43 -8 14 -36 31 -15 56 -31 56 -35 0 -11 -1 -10 -50 7 -47 17
-53 16 -44 -8 3 -8 40 -28 82 -42 115 -40 142 -53 142 -70 0 -17 0 -17 -129
33 -30 12 -56 20 -58 18 -9 -9 160 -85 202 -92 25 -3 48 -10 51 -15 10 -17
-71 -9 -115 11 -49 22 -60 21 -34 -3 39 -34 121 -57 208 -57 49 0 85 -4 85
-10 0 -12 -28 -18 -115 -23 -60 -3 -142 -25 -220 -57 -45 -19 -67 -22 -63 -9
2 7 27 22 54 32 27 10 59 23 72 28 12 5 22 14 21 21 0 7 -36 42 -81 78 -44 35
-90 79 -102 97 -23 36 -36 42 -36 16 0 -9 20 -36 45 -59 26 -25 40 -46 34 -50
-6 -3 -26 9 -45 27 -24 23 -34 28 -34 17 0 -17 63 -78 80 -78 6 0 10 -4 10
-10 0 -20 -30 -10 -66 22 -30 26 -36 29 -33 13 3 -12 24 -30 56 -45 29 -14 53
-28 53 -32 0 -13 -33 -8 -60 7 -36 20 -46 18 -25 -5 10 -11 31 -20 47 -20 15
0 28 -5 28 -11 0 -10 -48 -9 -75 2 -5 2 -11 0 -13 -6 -1 -5 9 -11 23 -13 37
-5 30 -22 -9 -22 -19 0 -38 -5 -42 -11 -4 -8 0 -9 15 -4 30 9 27 -13 -4 -25
-14 -5 -25 -17 -25 -26 0 -12 6 -14 32 -8 29 6 31 5 19 -10 -7 -9 -20 -16 -28
-16 -12 0 -14 -15 -11 -85 2 -50 -1 -86 -7 -87 -5 -2 -12 11 -15 27 -5 25 -7
21 -13 -25 -4 -30 -20 -81 -37 -114 -17 -32 -29 -61 -26 -64 8 -8 44 27 51 49
4 11 11 19 17 19 5 0 7 -7 4 -15 -3 -8 -9 -22 -12 -30 -4 -9 0 -15 9 -15 17 0
60 54 51 63 -3 3 -1 14 5 24 10 17 10 17 11 -2 0 -11 -4 -35 -9 -53 -13 -44
11 -44 33 1 l16 32 0 -32 c0 -44 14 -42 27 5 l10 37 2 -32 c1 -38 21 -45 21
-8 0 37 20 30 21 -7 l1 -33 11 28 c14 35 31 35 24 0 l-5 -28 25 29 c23 27 24
34 21 127 -2 55 0 99 4 99 12 0 28 -63 28 -112 0 -27 -7 -65 -15 -85 -21 -50
-19 -60 8 -35 28 27 37 28 37 5 1 -17 1 -17 14 0 16 21 26 22 26 1 0 -26 23
-10 46 30 13 24 24 34 29 27 4 -7 1 -19 -6 -27 -6 -8 -9 -17 -6 -20 11 -11 42
15 67 55 25 40 40 51 40 30 0 -7 -9 -27 -21 -45 -28 -46 -6 -45 43 3 46 45 61
37 24 -12 -15 -19 -23 -35 -18 -35 11 0 67 62 74 82 3 7 9 10 13 6 4 -4 -3
-24 -15 -45 l-22 -38 26 28 c24 26 26 35 26 115 0 48 -7 109 -15 136 -17 57
-18 66 -6 66 5 0 15 -19 23 -43 22 -72 38 -55 90 103 27 80 52 154 57 165 5
11 15 38 22 60 6 22 16 45 20 51 16 20 31 172 19 194 -6 11 -15 20 -19 20 -13
0 -22 -30 -16 -51 11 -34 -23 -184 -58 -260 -20 -41 -41 -103 -47 -139 -12
-68 -34 -120 -50 -120 -14 0 -12 12 4 35 15 23 26 95 14 95 -4 0 -8 -4 -8 -9
0 -5 -18 -24 -40 -41 -57 -45 -52 -15 9 54 64 74 104 151 136 265 32 115 29
153 -4 50 -48 -148 -141 -289 -191 -289 -20 0 -18 6 28 53 46 50 119 173 109
184 -3 2 -25 -10 -48 -27 -68 -49 -60 -16 12 54 37 35 76 85 92 116 36 72 35
96 -2 39 -33 -51 -68 -89 -81 -89 -16 0 -13 6 30 62 41 54 70 123 70 166 0 35
-20 22 -35 -22 -8 -22 -21 -46 -31 -55 -16 -15 -16 -15 -9 4 4 11 12 34 17 50
6 17 15 34 19 40 11 12 12 95 1 95 -5 0 -16 -18 -26 -40 -10 -22 -22 -40 -27
-40 -14 0 -11 23 7 48 19 28 24 103 7 109 -7 3 -13 -2 -13 -11 0 -25 -33 -86
-47 -86 -13 0 -10 14 14 60 15 29 17 100 3 100 -5 0 -10 -8 -10 -17 0 -25 -31
-103 -41 -103 -13 0 -11 16 6 57 8 19 15 54 14 77 l-1 41 -9 -35 c-17 -62 -31
-90 -45 -90 -12 0 -12 5 1 30 8 16 15 52 14 82 l-1 53 -9 -43 c-9 -50 -33 -89
-44 -72 -4 6 -2 17 4 23 5 7 13 33 17 57 l7 45 -27 -32 c-15 -18 -35 -33 -44
-33 -12 0 -9 7 11 28 33 34 35 49 5 28 -29 -21 -78 -21 -78 -1 0 10 10 15 28
15 17 0 37 9 48 21 l19 21 -46 -7 c-28 -4 -49 -3 -53 3 -3 6 14 13 40 17 53 8
48 22 -9 27 -20 2 -36 8 -35 13 2 6 16 9 32 7 39 -5 30 20 -12 33 -23 7 -31
14 -27 26 7 20 -19 29 -82 29 -24 0 -43 4 -43 9 0 15 48 22 90 12 51 -11 51 1
0 24 -26 12 -37 22 -31 28 13 13 -38 64 -73 73 -18 4 -25 11 -22 20 4 10 -4
14 -27 14 -27 1 -29 2 -14 11 26 15 21 32 -7 25 -30 -7 -43 9 -19 23 15 8 11
10 -19 11 -40 0 -52 18 -18 27 29 8 24 23 -7 23 -25 1 -26 2 -10 14 23 18 22
26 -5 26 -22 1 -23 1 -4 15 19 15 19 15 -2 15 -25 0 -28 10 -10 28 9 9 8 12
-4 12 -20 0 -31 39 -16 57 9 11 13 12 19 1 7 -10 9 -10 9 1 0 27 -50 100 -64
95 -11 -4 -13 3 -9 35 6 44 -2 52 -23 24 -7 -10 -16 -15 -20 -11 -4 5 0 16 9
26 10 10 17 27 17 38 0 16 -2 16 -10 4 -18 -29 -23 1 -5 40 14 31 16 53 11
102 -11 106 -17 132 -34 145 -16 12 -124 17 -149 7z m-73 -214 c0 -5 -6 -10
-12 -10 -7 0 -24 -3 -38 -6 -24 -5 -24 -5 -6 10 22 18 56 21 56 6z"></path>
<path class="node" id="node10" d="M1275 2800 c-3 -6 1 -7 9 -4 18 7 21 14 7 14 -6 0 -13 -4 -16 -10z"></path>
<path class="node" id="node11" d="M1200 2380 c-8 -5 -11 -12 -7 -16 4 -4 15 0 24 9 18 18 8 23 -17 7z"></path>
<path class="node" id="node12" d="M1288 2133 c6 -2 18 -2 25 0 6 3 1 5 -13 5 -14 0 -19 -2 -12 -5z"></path>
<path class="node" id="node13" d="M935 1749 c-48 -25 -130 -102 -153 -144 -12 -21 -18 -64 -22 -141 -5
-110 -5 -111 -47 -173 -49 -73 -61 -124 -39 -166 l16 -30 0 40 c0 46 13 71 30
60 7 -5 10 -23 8 -49 -5 -46 15 -128 36 -145 10 -8 8 4 -5 45 -11 32 -19 65
-19 75 0 27 21 69 35 69 6 0 19 16 28 35 9 19 23 35 32 35 18 0 18 1 0 -43
-19 -45 -19 -94 0 -127 22 -38 20 -57 -4 -36 -18 17 -19 16 -26 -14 -7 -34 15
-80 39 -80 32 0 50 40 56 128 5 84 20 132 40 132 13 0 12 -10 -5 -40 -9 -16
-14 -56 -15 -112 0 -81 2 -88 20 -88 10 0 24 9 30 20 6 11 15 20 21 20 6 0 8
-9 4 -20 -3 -11 -4 -20 -1 -20 2 0 12 23 21 50 9 28 20 50 25 50 7 0 0 -42
-15 -85 -7 -20 -6 -20 9 -1 9 11 16 28 16 38 0 10 5 18 10 18 15 0 12 -33 -7
-59 -12 -18 -13 -23 -2 -19 8 2 20 15 26 29 13 24 13 24 13 2 0 -30 18 -29 32
2 6 14 15 25 20 25 12 0 10 -24 -3 -37 -7 -7 -8 -13 0 -17 6 -4 16 2 23 14 18
28 30 25 22 -6 -5 -19 -4 -25 5 -20 6 4 11 16 11 27 0 11 7 19 16 19 12 0 15
-6 10 -25 -8 -33 2 -32 14 1 11 29 31 24 23 -6 -3 -11 -1 -20 5 -20 5 0 12 9
15 20 8 32 30 25 23 -7 -6 -27 -6 -27 9 -9 10 13 15 42 15 88 0 38 4 68 10 68
16 0 23 -47 17 -111 -3 -34 -1 -57 4 -53 5 3 9 23 9 45 0 42 16 54 23 17 2
-13 5 6 5 42 2 94 -25 139 -93 156 -27 6 -81 22 -120 34 -100 31 -214 60 -237
60 -10 0 -30 -7 -43 -16 -31 -20 -54 -15 -32 7 14 14 12 16 -18 15 -18 -1 -40
-8 -49 -15 -16 -14 -22 -3 -8 15 4 5 -2 -1 -13 -13 -27 -30 -37 -29 -25 1 5
13 6 27 2 31 -4 3 1 11 11 16 9 6 14 15 11 21 -4 6 -9 44 -11 83 -3 66 -1 73
17 78 11 3 20 13 20 25 0 11 6 24 13 30 11 9 14 -5 14 -77 2 -100 20 -151 54
-151 36 0 96 39 119 77 24 40 41 31 19 -9 -8 -13 -12 -27 -11 -32 2 -5 -5 -17
-14 -27 -9 -11 -13 -19 -7 -19 14 0 39 31 47 58 4 12 12 22 18 22 14 0 1 -50
-19 -73 -9 -9 -14 -19 -12 -21 6 -7 44 27 52 47 6 17 27 24 27 9 0 -5 -11 -22
-25 -38 -16 -18 -21 -30 -13 -33 6 -2 22 8 34 23 26 30 34 32 34 11 0 -8 -9
-20 -20 -27 -22 -14 -26 -28 -9 -28 6 0 20 11 31 25 11 14 24 22 29 19 6 -3 3
-14 -7 -25 -30 -33 -2 -44 29 -13 31 31 50 25 22 -6 -10 -11 -16 -23 -12 -26
9 -9 47 16 47 31 0 8 5 15 10 15 14 0 12 -38 -2 -43 -7 -2 -9 -8 -5 -13 10
-10 47 31 47 52 0 8 5 14 10 14 13 0 13 -26 -1 -52 -17 -31 -4 -32 25 -2 15
17 28 46 32 72 8 56 29 49 29 -10 0 -26 3 -50 7 -54 11 -10 30 44 36 103 5 54
-14 153 -29 153 -12 0 -11 -17 1 -41 6 -11 8 -25 4 -31 -4 -6 -14 11 -23 39
-12 38 -29 61 -69 96 -47 42 -101 77 -118 77 -3 0 -4 -7 0 -15 9 -24 -5 -74
-19 -69 -8 3 -15 -8 -19 -32 -5 -25 -11 -33 -17 -27 -7 7 -7 23 -1 46 10 37 2
101 -16 119 -5 5 -25 3 -51 -8 -46 -18 -60 -15 -36 9 19 20 19 27 0 27 -8 0
-15 5 -15 10 0 6 10 10 23 10 18 0 19 2 7 10 -25 16 -83 11 -125 -11z m60 -49
c3 -5 -11 -17 -32 -25 -21 -9 -53 -30 -70 -47 -18 -18 -36 -29 -40 -25 -10 11
46 64 91 87 48 23 43 22 51 10z m122 -92 c-2 -13 -4 -5 -4 17 -1 22 1 32 4 23
2 -10 2 -28 0 -40z m-41 -34 c-4 -18 -11 -34 -17 -34 -10 0 -3 64 9 85 10 16
14 -15 8 -51z m34 -3 c0 -6 -4 -13 -10 -16 -5 -3 -10 1 -10 9 0 9 5 16 10 16
6 0 10 -4 10 -9z"></path>
<path class="node" id="node14" d="M1260 1745 c-14 -8 -38 -15 -55 -15 -28 -1 -27 -2 20 -25 28 -14 51
-25 53 -25 1 0 2 11 2 25 0 15 6 25 14 25 16 0 26 -21 26 -57 0 -25 48 -83 69
-83 6 0 11 10 11 23 0 37 12 67 25 67 15 0 25 22 25 56 0 35 -12 30 -38 -17
-22 -39 -65 -69 -79 -56 -4 4 6 21 22 37 31 33 29 48 -5 30 -26 -14 -37 -6
-20 15 11 13 8 15 -16 15 -16 -1 -40 -7 -54 -15z"></path>
<path class="node" id="node15" d="M1166 1673 c9 -38 14 -42 14 -10 0 14 -5 29 -10 32 -7 4 -8 -3 -4
-22z"></path>
<path class="node" id="node16" d="M1373 1278 c-15 -20 -25 -38 -20 -38 3 0 12 11 21 25 17 26 16 35 -1
13z"></path>
<path class="node" id="node17" d="M1397 1263 c-4 -3 -7 -11 -7 -17 0 -6 5 -5 12 2 6 6 9 14 7 17 -3 3
-9 2 -12 -2z"></path>
<path class="node" id="node18" d="M1425 1070 c0 -55 3 -100 7 -100 12 0 21 89 14 138 -11 82 -21 64
-21 -38z"></path>
<path class="node" id="node19" d="M771 1104 c0 -11 3 -14 6 -6 3 7 2 16 -1 19 -3 4 -6 -2 -5 -13z"></path>
<path class="node" id="node20" d="M702 942 c0 -44 -3 -86 -7 -92 -8 -13 23 -159 37 -177 5 -7 13 -66
18 -133 6 -106 10 -125 34 -160 14 -22 29 -40 33 -40 4 0 2 5 -5 12 -15 15
-16 48 -1 48 5 0 16 -15 24 -33 8 -19 22 -40 31 -48 16 -13 16 -12 2 16 -9 17
-19 40 -22 53 -11 35 12 26 28 -10 14 -34 76 -100 76 -82 0 6 -11 21 -25 34
-25 23 -33 50 -16 50 5 0 13 -9 16 -20 7 -21 25 -28 25 -9 0 5 5 7 12 3 7 -4
2 7 -11 24 -12 18 -25 49 -28 69 -6 34 -5 37 10 25 9 -7 19 -27 22 -43 7 -29
66 -99 85 -99 5 0 -2 16 -15 36 -29 43 -35 84 -7 46 46 -63 76 -92 94 -92 14
0 18 5 14 18 -13 46 -17 102 -8 102 12 0 28 -46 35 -102 4 -29 2 -40 -11 -48
-16 -9 -16 -9 0 -10 17 0 21 9 33 67 11 54 29 53 23 0 -7 -56 9 -53 18 4 9 54
27 63 22 11 -2 -22 0 -38 4 -36 5 3 8 12 8 20 0 8 6 14 14 14 8 0 17 8 19 17
3 10 5 5 6 -12 2 -47 21 -9 21 43 0 42 20 61 20 20 1 -23 1 -23 15 2 19 33 19
100 -1 128 -18 27 -4 29 19 4 10 -10 17 -34 17 -53 0 -25 3 -30 10 -19 5 8 7
23 4 33 -3 10 0 24 6 32 9 11 9 22 -1 50 -15 41 -31 44 -119 21 -30 -8 -78
-17 -106 -21 -28 -3 -64 -13 -80 -22 -16 -8 -53 -17 -81 -20 -39 -4 -54 -10
-58 -24 -9 -26 -25 -24 -25 4 0 18 -2 19 -10 7 -5 -8 -10 -25 -10 -37 0 -13
-4 -23 -10 -23 -13 0 -13 21 0 54 7 21 6 26 -5 26 -8 0 -17 -11 -21 -25 -3
-14 -10 -25 -15 -25 -13 0 -11 24 3 38 18 18 -3 14 -23 -4 -28 -25 -45 -6 -19
21 l21 22 -31 13 c-34 14 -80 68 -80 93 0 24 15 21 29 -5 6 -13 10 -16 7 -7
-2 9 -7 38 -10 65 -3 27 -3 40 0 29 18 -69 63 -149 91 -159 9 -4 4 7 -11 24
-39 47 -63 168 -36 185 6 3 11 3 11 -2 1 -4 3 -23 5 -42 7 -64 24 -107 50
-132 l26 -24 -14 35 c-9 21 -12 43 -7 55 7 19 8 19 8 -1 1 -22 55 -104 70
-104 4 0 6 12 4 28 l-4 27 21 -24 c28 -33 38 -19 43 64 2 39 9 86 15 105 8 29
10 16 11 -77 1 -104 3 -113 20 -113 23 0 41 45 41 101 0 23 5 39 11 39 9 0 10
-22 6 -76 -3 -42 -2 -73 3 -68 4 5 10 20 12 33 1 14 9 26 17 29 10 3 12 -3 6
-27 -4 -17 -3 -31 2 -31 13 0 30 14 36 30 4 12 6 11 6 -2 1 -25 17 -22 26 5
l8 22 4 -23 5 -24 24 23 c13 12 24 17 24 11 0 -21 20 -13 32 13 14 31 28 32
28 3 0 -19 2 -20 10 -8 5 8 10 36 10 63 0 26 5 47 10 47 6 0 10 -25 10 -56 0
-37 4 -53 11 -48 7 4 9 30 7 67 -4 70 14 89 30 30 l10 -38 1 45 c1 46 16 46
24 0 3 -19 4 -17 5 10 1 19 -8 51 -18 70 l-20 35 5 -30 6 -30 -15 33 c-19 41
-42 51 -61 26 -13 -18 -14 -18 -15 -1 0 14 -9 17 -51 17 -31 0 -48 -4 -44 -10
10 -16 -15 -12 -31 5 -21 20 -35 19 -27 -2 6 -17 5 -17 -14 0 -30 26 -44 22
-37 -10 6 -28 6 -28 -26 7 -20 22 -29 28 -24 15 4 -11 9 -35 12 -54 6 -42 -14
-34 -23 10 -8 34 -41 69 -66 69 -21 0 -67 -52 -75 -86 -3 -13 -10 -24 -15 -24
-14 0 -10 44 6 66 8 10 15 23 15 27 0 10 -77 -1 -104 -15 -14 -8 -17 -7 -11 2
6 10 1 12 -18 8 -17 -3 -28 0 -32 10 -4 12 -8 13 -17 4 -17 -17 -28 -15 -21 4
5 13 2 15 -17 9 -19 -6 -22 -4 -17 10 4 9 0 26 -7 37 -14 19 -15 14 -14 -60z
m175 -122 c-9 -45 -27 -70 -27 -36 0 14 28 86 34 86 2 0 -1 -22 -7 -50z"></path>
<path class="node" id="node21" d="M1374 425 c-7 -28 -10 -52 -8 -54 7 -8 25 54 22 78 -2 18 -6 12 -14
-24z"></path>
<path class="node" id="node22" d="M1387 332 c-15 -16 -47 -83 -47 -97 0 -17 23 12 46 57 27 53 27 69 1
40z"></path>
<path class="node" id="node23" d="M973 305 c15 -14 38 -25 49 -25 26 0 24 2 -32 29 l-45 22 28 -26z"></path>
<path class="node" id="node24" d="M1293 260 c-41 -48 -42 -68 -3 -39 27 20 58 79 42 79 -4 0 -22 -18
-39 -40z"></path>
<path class="node" id="node25" d="M1237 254 c-41 -27 -43 -46 -4 -25 19 10 54 51 44 51 -1 0 -20 -12
-40 -26z"></path>
</g>
</svg>